<?xml version="1.0" encoding="UTF-8"?>
<!-- Generator: Adobe Illustrator 16.0.0, SVG Export Plug-In . SVG Version: 6.00 Build 0)  -->
<svg width="31.5px" height="31.5px" enable-background="new 0 0 31.493 31.492" version="1.1" viewBox="0 0 31.5 31.5" xml:space="preserve" xmlns="http://www.w3.org/2000/svg">
<g fill="#e6e6e6">
	<path d="m29.9 18.9c0.859 0 1.56-0.696 1.56-1.56v-3.18c0-0.861-0.697-1.56-1.56-1.56h-1.76c0-1e-3 0-2e-3 -4e-3 -6e-3 -0.307-1.22-0.789-2.36-1.42-3.41l1.22-1.22c0.607-0.609 0.607-1.6 0-2.2l-2.25-2.25c-0.293-0.293-0.69-0.457-1.1-0.457-0.412 0-0.812 0.165-1.1 0.458l-1.22 1.22c-1.04-0.623-2.18-1.1-3.38-1.41-4e-3 -1e-3 -0.012-0.903-0.02-1.76-3e-3 -0.857-0.698-1.55-1.56-1.55h-3.18c-0.416 0-0.814 0.166-1.11 0.461s-0.456 0.696-0.452 1.11l0.015 1.71c-1.24 0.264-2.42 0.8-3.49 1.44l-1.22-1.22c-0.292-0.293-0.689-0.457-1.1-0.457s-0.811 0.165-1.1 0.457l-2.25 2.25c-0.608 0.609-0.609 1.6 0 2.2l1.22 1.22c-0.626 1.05-1.11 2.2-1.42 3.41-1e-3 4e-3 -1e-3 5e-3 -3e-3 6e-3h-1.7c-0.861 0-1.56 0.698-1.56 1.56v3.18c0 0.861 0.698 1.56 1.56 1.56h1.69c-0.015-0.062-0.027-0.119-0.042-0.184 0.015 0.059 0.027 0.118 0.042 0.176 0.308 1.23 0.793 2.39 1.43 3.46l-1.22 1.22c-0.293 0.291-0.457 0.688-0.457 1.1s0.164 0.811 0.457 1.1l2.25 2.25c0.292 0.291 0.688 0.457 1.1 0.457 0.413 0 0.811-0.166 1.1-0.457l1.22-1.22c1.07 0.641 2.24 1.13 3.49 1.44l-0.014 1.69c-4e-3 0.416 0.159 0.816 0.452 1.11s0.691 0.461 1.11 0.461h3.18c0.855 0 1.55-0.691 1.56-1.55 6e-3 -0.851 0.012-1.73 0.019-1.73 1.2-0.31 2.34-0.789 3.38-1.41l1.22 1.22c0.609 0.608 1.6 0.608 2.2 0l2.25-2.24c0.606-0.609 0.608-1.6 0-2.21l-1.22-1.22c0.638-1.06 1.12-2.22 1.43-3.46 0.016-0.059 0.016-0.055 0 8e-3h1.75l-4e-3 -8e-3zm-14.2 1.25c-2.42 0-4.38-1.96-4.38-4.38 0-2.42 1.96-4.38 4.38-4.38s4.38 1.96 4.38 4.38c0 2.42-1.96 4.38-4.38 4.38z" fill="#e6e6e6"/>
</g>
</svg>
